<svg xmlns="http://www.w3.org/2000/svg" viewBox="0 0 64 44" role="img" aria-label="NVIDIA">
  <path
    fill="#76b900"
    d="M31.8 8.2c-8.8 0-16.4 5.7-20.8 13.8 4.4 8.2 12 13.8 20.8 13.8 8.7 0 16.3-5.6 20.7-13.8-4.4-8.1-12-13.8-20.7-13.8Zm0 6.8c4.7 0 8.5 3.1 10.8 7-2.3 3.9-6.1 7-10.8 7-4.8 0-8.6-3.1-10.9-7 2.3-3.9 6.1-7 10.9-7Zm0 4.3a3.7 3.7 0 1 0 0 7.4 3.7 3.7 0 0 0 0-7.4Z"
  />
  <path
    fill="#76b900"
    d="M5.4 22c5.6-11 16.7-17.8 28.5-17.8 9.3 0 17.8 4.3 23.6 11.3l-4.1 3.4c-4.8-5.7-11.6-9.1-19.5-9.1-9.5 0-18.2 5.3-22.7 12.2 4.5 6.9 13.2 12.2 22.7 12.2 7.9 0 14.7-3.4 19.5-9.1l4.1 3.4c-5.8 7-14.3 11.3-23.6 11.3-11.8 0-22.9-6.8-28.5-17.8Z"
    opacity=".42"
  />
</svg>
